<svg xmlns="http://www.w3.org/2000/svg" xmlns:xlink="http://www.w3.org/1999/xlink" width="2068px" height="1189px" viewBox="0 0 2068 1189"><title>Group 7 Copy</title><defs><path d="M1258.62063,0.664840316 C1237.18206,0.712351779 1215.53886,1.9476498 1193.7456,4.43182055 L1193.7456,4.43182055 C960.417853,30.9567913 775.744674,192.577212 709.143916,401.844842 L709.143916,401.844842 C684.240253,389.661545 656.362611,383.430757 625.852042,383.865147 L625.852042,383.865147 C599.884295,384.224877 571.754274,389.322178 542.266863,399.000942 L542.266863,399.000942 C480.6864,419.2001 439.077979,450.910608 413.840084,497.458266 L413.840084,497.458266 C389.584421,485.363206 363.057347,479.621106 333.583579,480.048709 L333.583579,480.048709 C306.599495,480.422013 277.494063,485.86547 244.609768,496.670934 L244.609768,496.670934 C198.056084,511.969625 160.233347,539.424462 136.591579,573.829549 L136.591579,573.829549 C122.260547,564.401917 105.126063,559.155294 87.0025263,559.406426 L87.0025263,559.406426 C78.0260211,559.535386 69.1109053,561.035391 60.5095579,563.858929 L60.5095579,563.858929 C38.1092211,571.216418 19.9720421,586.739092 9.41987368,607.549112 L9.41987368,607.549112 C3.20589474,619.80707 0.0409263158,633.076342 0,646.461 L0,646.461 L0,647.017563 C0.0272842105,656.194062 1.52109474,665.418074 4.50871579,674.411315 L4.50871579,674.411315 L127.335411,1044.87176 C139.313179,1080.90581 171.522189,1103.86064 209.406316,1103.32444 L209.406316,1103.32444 C218.887579,1103.18869 228.430232,1101.55294 237.727326,1098.49863 L237.727326,1098.49863 C260.420968,1091.04612 278.721853,1076.05286 289.260379,1056.26773 L289.260379,1056.26773 C300.010358,1036.0482 301.831579,1012.53003 294.389811,990.02996 L294.389811,990.02996 L219.139958,763.074491 C201.091453,708.633142 215.170105,679.386443 267.733137,662.126208 L267.733137,662.126208 C278.258021,658.664658 287.882526,656.852436 296.313347,656.730263 L296.313347,656.730263 C313.932126,656.485919 336.236968,662.485938 352.471074,711.436319 L352.471074,711.436319 L430.060547,945.504932 C442.038316,981.64758 474.049516,1004.66349 511.613053,1004.1205 L511.613053,1004.1205 C521.182989,1003.99154 530.868884,1002.33543 540.486568,999.192885 L540.486568,999.192885 C562.730021,991.889694 580.8672,976.971095 591.542147,957.185964 L591.542147,957.185964 C602.592253,936.715311 604.577179,913.08854 597.121768,890.710641 L597.121768,890.710641 L519.198063,655.535689 C511.742653,633.035618 511.408421,614.404338 518.222653,600.150899 L518.222653,600.150899 C525.834947,584.227772 543.399158,571.657596 570.451453,562.806889 L570.451453,562.806889 C580.989979,559.331765 590.614484,557.512755 599.065768,557.390583 L599.065768,557.390583 C616.677726,557.146238 638.975747,563.13947 655.482695,612.931482 L655.482695,612.931482 L713.523032,771.857324 C726.292042,809.36423 747.894316,848.479738 768.0096,875.954938 L768.0096,875.954938 C881.791579,1059.48493 1095.16775,1171.32691 1324.73709,1145.22955 L1324.73709,1145.22955 C1457.2224,1130.16162 1573.96472,1071.46461 1662.41331,985.333112 L1662.41331,985.333112 C1743.22232,1044.78353 1933.82981,1188.01022 1985.62206,1188.49891 L1985.62206,1188.49891 L1986.09954,1188.49891 C1986.95217,1188.49891 1987.75705,1188.44461 1988.52783,1188.35638 L1988.52783,1188.35638 C2013.30189,1185.53963 2036.88909,1168.92419 2051.70442,1146.09154 L2051.70442,1146.09154 C2064.87587,1125.79057 2071.12396,1100.56198 2065.10779,1075.75421 L2065.10779,1075.75421 C2056.104,1038.37627 1873.98872,924.097625 1762.38947,855.606458 L1762.38947,855.606458 C1819.74088,754.026951 1846.79318,634.277704 1832.48943,509.689074 L1832.48943,509.689074 C1798.90257,217.194937 1549.97507,1.27570198 1261.15806,0.664840316 L1261.15806,0.664840316 L1258.62063,0.664840316 Z M929.989137,914.439223 C840.947116,830.961583 792.2448,715.888821 789.1344,581.655365 L789.1344,581.655365 C789.073011,578.519609 789.168505,575.424576 789.3936,572.356693 L789.3936,572.356693 C788.527326,565.148526 788.452295,557.770674 789.277642,550.311375 L789.277642,550.311375 L795.123284,498.530668 C795.239242,497.52614 795.368842,496.508037 795.512084,495.503509 L795.512084,495.503509 C818.144337,339.760935 928.406653,203.65417 1083.25819,140.287454 L1083.25819,140.287454 C1244.16,74.4433542 1421.13221,100.316739 1568.77389,211.276366 L1568.77389,211.276366 C1592.83857,229.357871 1606.99225,257.606829 1607.03318,287.613711 L1607.03318,287.613711 C1607.08093,322.582148 1598.71832,357.964613 1582.84573,389.926252 L1582.84573,389.926252 C1519.20531,518.152902 1407.53103,615.571762 1268.3952,664.264224 L1268.3952,664.264224 C1210.19798,684.626279 1149.97491,695.46568 1089.8064,696.843512 L1089.8064,696.843512 C1061.35579,697.495098 1032.93246,695.988306 1004.72059,692.418159 L1004.72059,692.418159 C1018.10349,724.06758 1037.20244,751.678527 1062.05154,774.972719 L1062.05154,774.972719 C1113.42088,823.142554 1186.96547,849.009152 1264.00244,846.362085 L1264.00244,846.362085 C1381.23587,842.106415 1510.84952,763.739651 1524.81221,639.95193 L1524.81221,639.95193 C1530.72606,587.377103 1578.38476,549.490105 1631.22745,555.422251 L1631.22745,555.422251 C1684.07697,561.327247 1722.11116,608.736899 1716.17684,661.311726 L1716.17684,661.311726 C1692.91705,867.613283 1501.5456,1029.48484 1271.02813,1037.85364 L1271.02813,1037.85364 C1268.79764,1037.94188 1266.5808,1038.00975 1264.36396,1038.05047 L1264.36396,1038.05047 C1260.55099,1038.13871 1256.72438,1038.17943 1252.91823,1038.17943 L1252.91823,1038.17943 C1131.25794,1038.17943 1014.43377,993.613681 929.989137,914.439223 L929.989137,914.439223 Z" id="path-1"></path><linearGradient x1="-4.18667818%" y1="49.9999946%" x2="104.780624%" y2="49.9999946%" id="linearGradient-3"><stop stop-color="#389AFF" offset="0%"></stop><stop stop-color="#0E83F6" offset="100%"></stop></linearGradient><path d="M79.2236198,15.5945306 C-2.44955689,45.6454257 -14.7760635,146.144051 15.2882592,227.864225 L15.2882592,227.864225 C45.3592957,309.584398 145.83778,321.810198 227.544526,291.786158 L227.544526,291.786158 C309.264699,261.762118 321.497212,161.216495 291.506741,79.5164636 L291.506741,79.5164636 C271.163977,24.1143219 218.339928,0.64293469 160.977362,0.636220907 L160.977362,0.636220907 C133.75297,0.636220907 105.508082,5.92668233 79.2236198,15.5945306 M76.766375,195.027109 C54.9801475,152.38787 69.3812131,98.8723016 112.013739,77.0659327 L112.013739,77.0659327 C154.652978,55.2595637 208.17526,69.6941983 229.974915,112.326724 L229.974915,112.326724 C231.216965,114.763827 232.311312,117.247927 233.325093,119.745455 L233.325093,119.745455 C228.189049,120.047575 222.865019,121.558176 217.56113,124.445103 L217.56113,124.445103 C196.345574,135.999525 187.44981,165.96314 199.057942,188.42746 L199.057942,188.42746 C204.328262,198.625697 212.586216,205.131354 221.636396,208.199553 L221.636396,208.199553 C214.573496,217.149026 205.577026,224.755743 194.727552,230.308042 L194.727552,230.308042 C181.440974,237.102391 167.100332,240.378717 152.994673,240.378717 L152.994673,240.378717 C121.815863,240.378717 91.778395,224.379771 76.766375,195.027109" id="path-4"></path><linearGradient x1="-356.729238%" y1="50.0002768%" x2="367.660143%" y2="50.0002768%" id="linearGradient-6"><stop stop-color="#389AFF" offset="0%"></stop><stop stop-color="#0E83F6" offset="100%"></stop></linearGradient></defs><g id="Page-1" stroke="none" stroke-width="1" fill="none" fill-rule="evenodd"><g id="logo-" transform="translate(-177.000000, -488.000000)"><g id="Group-7-Copy" transform="translate(177.000000, 488.000000)"><g id="Group-3"><mask id="mask-2" fill="white"><use xlink:href="#path-1"></use></mask><g id="Clip-2"></g><path d="M1258.62063,0.664840316 C1237.18206,0.712351779 1215.53886,1.9476498 1193.7456,4.43182055 L1193.7456,4.43182055 C960.417853,30.9567913 775.744674,192.577212 709.143916,401.844842 L709.143916,401.844842 C684.240253,389.661545 656.362611,383.430757 625.852042,383.865147 L625.852042,383.865147 C599.884295,384.224877 571.754274,389.322178 542.266863,399.000942 L542.266863,399.000942 C480.6864,419.2001 439.077979,450.910608 413.840084,497.458266 L413.840084,497.458266 C389.584421,485.363206 363.057347,479.621106 333.583579,480.048709 L333.583579,480.048709 C306.599495,480.422013 277.494063,485.86547 244.609768,496.670934 L244.609768,496.670934 C198.056084,511.969625 160.233347,539.424462 136.591579,573.829549 L136.591579,573.829549 C122.260547,564.401917 105.126063,559.155294 87.0025263,559.406426 L87.0025263,559.406426 C78.0260211,559.535386 69.1109053,561.035391 60.5095579,563.858929 L60.5095579,563.858929 C38.1092211,571.216418 19.9720421,586.739092 9.41987368,607.549112 L9.41987368,607.549112 C3.20589474,619.80707 0.0409263158,633.076342 0,646.461 L0,646.461 L0,647.017563 C0.0272842105,656.194062 1.52109474,665.418074 4.50871579,674.411315 L4.50871579,674.411315 L127.335411,1044.87176 C139.313179,1080.90581 171.522189,1103.86064 209.406316,1103.32444 L209.406316,1103.32444 C218.887579,1103.18869 228.430232,1101.55294 237.727326,1098.49863 L237.727326,1098.49863 C260.420968,1091.04612 278.721853,1076.05286 289.260379,1056.26773 L289.260379,1056.26773 C300.010358,1036.0482 301.831579,1012.53003 294.389811,990.02996 L294.389811,990.02996 L219.139958,763.074491 C201.091453,708.633142 215.170105,679.386443 267.733137,662.126208 L267.733137,662.126208 C278.258021,658.664658 287.882526,656.852436 296.313347,656.730263 L296.313347,656.730263 C313.932126,656.485919 336.236968,662.485938 352.471074,711.436319 L352.471074,711.436319 L430.060547,945.504932 C442.038316,981.64758 474.049516,1004.66349 511.613053,1004.1205 L511.613053,1004.1205 C521.182989,1003.99154 530.868884,1002.33543 540.486568,999.192885 L540.486568,999.192885 C562.730021,991.889694 580.8672,976.971095 591.542147,957.185964 L591.542147,957.185964 C602.592253,936.715311 604.577179,913.08854 597.121768,890.710641 L597.121768,890.710641 L519.198063,655.535689 C511.742653,633.035618 511.408421,614.404338 518.222653,600.150899 L518.222653,600.150899 C525.834947,584.227772 543.399158,571.657596 570.451453,562.806889 L570.451453,562.806889 C580.989979,559.331765 590.614484,557.512755 599.065768,557.390583 L599.065768,557.390583 C616.677726,557.146238 638.975747,563.13947 655.482695,612.931482 L655.482695,612.931482 L713.523032,771.857324 C726.292042,809.36423 747.894316,848.479738 768.0096,875.954938 L768.0096,875.954938 C881.791579,1059.48493 1095.16775,1171.32691 1324.73709,1145.22955 L1324.73709,1145.22955 C1457.2224,1130.16162 1573.96472,1071.46461 1662.41331,985.333112 L1662.41331,985.333112 C1743.22232,1044.78353 1933.82981,1188.01022 1985.62206,1188.49891 L1985.62206,1188.49891 L1986.09954,1188.49891 C1986.95217,1188.49891 1987.75705,1188.44461 1988.52783,1188.35638 L1988.52783,1188.35638 C2013.30189,1185.53963 2036.88909,1168.92419 2051.70442,1146.09154 L2051.70442,1146.09154 C2064.87587,1125.79057 2071.12396,1100.56198 2065.10779,1075.75421 L2065.10779,1075.75421 C2056.104,1038.37627 1873.98872,924.097625 1762.38947,855.606458 L1762.38947,855.606458 C1819.74088,754.026951 1846.79318,634.277704 1832.48943,509.689074 L1832.48943,509.689074 C1798.90257,217.194937 1549.97507,1.27570198 1261.15806,0.664840316 L1261.15806,0.664840316 L1258.62063,0.664840316 Z M929.989137,914.439223 C840.947116,830.961583 792.2448,715.888821 789.1344,581.655365 L789.1344,581.655365 C789.073011,578.519609 789.168505,575.424576 789.3936,572.356693 L789.3936,572.356693 C788.527326,565.148526 788.452295,557.770674 789.277642,550.311375 L789.277642,550.311375 L795.123284,498.530668 C795.239242,497.52614 795.368842,496.508037 795.512084,495.503509 L795.512084,495.503509 C818.144337,339.760935 928.406653,203.65417 1083.25819,140.287454 L1083.25819,140.287454 C1244.16,74.4433542 1421.13221,100.316739 1568.77389,211.276366 L1568.77389,211.276366 C1592.83857,229.357871 1606.99225,257.606829 1607.03318,287.613711 L1607.03318,287.613711 C1607.08093,322.582148 1598.71832,357.964613 1582.84573,389.926252 L1582.84573,389.926252 C1519.20531,518.152902 1407.53103,615.571762 1268.3952,664.264224 L1268.3952,664.264224 C1210.19798,684.626279 1149.97491,695.46568 1089.8064,696.843512 L1089.8064,696.843512 C1061.35579,697.495098 1032.93246,695.988306 1004.72059,692.418159 L1004.72059,692.418159 C1018.10349,724.06758 1037.20244,751.678527 1062.05154,774.972719 L1062.05154,774.972719 C1113.42088,823.142554 1186.96547,849.009152 1264.00244,846.362085 L1264.00244,846.362085 C1381.23587,842.106415 1510.84952,763.739651 1524.81221,639.95193 L1524.81221,639.95193 C1530.72606,587.377103 1578.38476,549.490105 1631.22745,555.422251 L1631.22745,555.422251 C1684.07697,561.327247 1722.11116,608.736899 1716.17684,661.311726 L1716.17684,661.311726 C1692.91705,867.613283 1501.5456,1029.48484 1271.02813,1037.85364 L1271.02813,1037.85364 C1268.79764,1037.94188 1266.5808,1038.00975 1264.36396,1038.05047 L1264.36396,1038.05047 C1260.55099,1038.13871 1256.72438,1038.17943 1252.91823,1038.17943 L1252.91823,1038.17943 C1131.25794,1038.17943 1014.43377,993.613681 929.989137,914.439223 L929.989137,914.439223 Z" id="Fill-1" fill="url(#linearGradient-3)" mask="url(#mask-2)"></path></g><g id="Group-6" transform="translate(1020.335870, 268.444565)"><mask id="mask-5" fill="white"><use xlink:href="#path-4"></use></mask><g id="Clip-5"></g><path d="M79.2236198,15.5945306 C-2.44955689,45.6454257 -14.7760635,146.144051 15.2882592,227.864225 L15.2882592,227.864225 C45.3592957,309.584398 145.83778,321.810198 227.544526,291.786158 L227.544526,291.786158 C309.264699,261.762118 321.497212,161.216495 291.506741,79.5164636 L291.506741,79.5164636 C271.163977,24.1143219 218.339928,0.64293469 160.977362,0.636220907 L160.977362,0.636220907 C133.75297,0.636220907 105.508082,5.92668233 79.2236198,15.5945306 M76.766375,195.027109 C54.9801475,152.38787 69.3812131,98.8723016 112.013739,77.0659327 L112.013739,77.0659327 C154.652978,55.2595637 208.17526,69.6941983 229.974915,112.326724 L229.974915,112.326724 C231.216965,114.763827 232.311312,117.247927 233.325093,119.745455 L233.325093,119.745455 C228.189049,120.047575 222.865019,121.558176 217.56113,124.445103 L217.56113,124.445103 C196.345574,135.999525 187.44981,165.96314 199.057942,188.42746 L199.057942,188.42746 C204.328262,198.625697 212.586216,205.131354 221.636396,208.199553 L221.636396,208.199553 C214.573496,217.149026 205.577026,224.755743 194.727552,230.308042 L194.727552,230.308042 C181.440974,237.102391 167.100332,240.378717 152.994673,240.378717 L152.994673,240.378717 C121.815863,240.378717 91.778395,224.379771 76.766375,195.027109" id="Fill-4" fill="url(#linearGradient-6)" mask="url(#mask-5)"></path></g></g></g></g></svg>